<svg id="Ebene_1" data-name="Ebene 1" xmlns="http://www.w3.org/2000/svg" viewBox="0 0 796.00001 215.26551"><defs><style>.cls-1{fill:#fff;}</style></defs><title>github-logo</title><path class="cls-1" d="M715.31294,524.50269H648.42261a3.12732,3.12732,0,0,0-3.12558,3.12713V560.333a3.13058,3.13058,0,0,0,3.12558,3.13045h26.09419v40.631s-5.85956,1.99761-22.05721,1.99761c-19.11152,0-45.80771-6.98289-45.80771-65.68854,0-58.71713,27.79875-66.443,53.89759-66.443,22.59137,0,32.32437,3.97709,38.51719,5.89448,1.94567.59559,3.74549-1.3419,3.74549-3.06835l7.462-31.59839a2.91361,2.91361,0,0,0-1.1945-2.44159c-2.51541-1.79429-17.85868-10.37942-56.62008-10.37942C607.80439,432.36725,562,451.36517,562,542.69309c0,91.33035,52.44254,104.93967,96.63475,104.93967,36.591,0,58.789-15.6361,58.789-15.6361a2.6852,2.6852,0,0,0,1.01328-2.36955V527.62982A3.126,3.126,0,0,0,715.31294,524.50269Z" transform="translate(-561.99999 -432.36725)"/><path class="cls-1" d="M1060.03371,443.31a3.11523,3.11523,0,0,0-3.10459-3.14415h-37.66259a3.13079,3.13079,0,0,0-3.11918,3.14415c0,.008.00995,72.78458.00995,72.78458H957.45055V443.31a3.11995,3.11995,0,0,0-3.10768-3.14415h-37.661a3.128,3.128,0,0,0-3.111,3.14415V640.39107a3.13674,3.13674,0,0,0,3.111,3.153h37.661a3.12868,3.12868,0,0,0,3.10768-3.153V556.09224h58.70674s-.1021,84.29242-.1021,84.29883a3.13839,3.13839,0,0,0,3.11917,3.153h37.75143a3.12886,3.12886,0,0,0,3.1079-3.153Z" transform="translate(-561.99999 -432.36725)"/><path class="cls-1" d="M786.38434,469.171a24.28574,24.28574,0,1,0-24.28775,24.537A24.39154,24.39154,0,0,0,786.38434,469.171Z" transform="translate(-561.99999 -432.36725)"/><path class="cls-1" d="M783.691,598.81769V507.84447a3.13106,3.13106,0,0,0-3.11608-3.13929H743.03081a3.59132,3.59132,0,0,0-3.26327,3.50349V638.54573c0,3.82969,2.38746,4.96915,5.47568,4.96915h33.8265c3.71167,0,4.6213-1.82258,4.6213-5.03059Z" transform="translate(-561.99999 -432.36725)"/><path class="cls-1" d="M1203.17033,505.00133h-37.37463a3.13391,3.13391,0,0,0-3.10923,3.15144V604.7873a42.22516,42.22516,0,0,1-22.97193,6.94731c-13.47517,0-17.05226-6.11525-17.05226-19.31042V508.15277a3.13164,3.13164,0,0,0-3.10788-3.15144h-37.93134a3.13921,3.13921,0,0,0-3.11431,3.15144v90.6521c0,39.19389,21.84373,48.7828,51.8938,48.7828,24.652,0,44.529-13.61926,44.529-13.61926s.94676,7.17693,1.37417,8.02822a3.29359,3.29359,0,0,0,2.74989,1.70611l24.13084-.10674a3.13914,3.13914,0,0,0,3.11409-3.1468l-.01127-132.29643A3.137,3.137,0,0,0,1203.17033,505.00133Z" transform="translate(-561.99999 -432.36725)"/><path class="cls-1" d="M1305.31967,500.57428a70.2734,70.2734,0,0,0-35.66518,9.47068V443.31a3.12326,3.12326,0,0,0-3.10793-3.14415h-37.76933a3.127,3.127,0,0,0-3.11252,3.14415V640.39107a3.13674,3.13674,0,0,0,3.11739,3.153h26.20425a3.12282,3.12282,0,0,0,2.73375-1.67362c.65084-1.05858,1.59119-9.087,1.59119-9.087s15.44339,14.63586,44.68107,14.63586c34.3233,0,54.00765-17.41027,54.00765-78.15794C1358,508.513,1326.56272,500.57428,1305.31967,500.57428Zm-14.741,111.04055a44.81317,44.81317,0,0,1-21.75624-6.27725V542.926a49.81532,49.81532,0,0,1,19.31683-6.2673c13.459-1.20511,26.42768,2.86016,26.42768,34.966C1314.56691,605.48013,1308.71379,612.16181,1290.57864,611.61484Z" transform="translate(-561.99999 -432.36725)"/><path class="cls-1" d="M891.93594,504.68729h-28.2518s-.042-37.3154-.042-37.32358c0-1.41307-.72841-2.11871-2.36159-2.11871H822.78127c-1.49727,0-2.30015.6588-2.30015,2.09706V505.911s-19.29429,4.65777-20.59884,5.03391a3.12956,3.12956,0,0,0-2.25485,3.00426V538.186a3.1279,3.1279,0,0,0,3.11433,3.149h19.73937v58.30829c0,43.30844,30.37871,47.56223,50.8772,47.56223,9.367,0,20.57122-3.00757,22.42142-3.69068a2.91371,2.91371,0,0,0,1.76909-2.82613l.03072-26.66216a3.18011,3.18011,0,0,0-3.12227-3.14658c-1.64622,0-5.858.67007-10.19423.67007-13.87673,0-18.57891-6.45183-18.57891-14.80426,0-8.34557-.00155-55.41077-.00155-55.41077h28.25335a3.1307,3.1307,0,0,0,3.11763-3.149V507.82746A3.1255,3.1255,0,0,0,891.93594,504.68729Z" transform="translate(-561.99999 -432.36725)"/></svg>