<svg id="Ebene_1" data-name="Ebene 1" xmlns="http://www.w3.org/2000/svg" viewBox="0 0 382.78131 373.32906"><defs><style>.cls-1{fill:#fff;fill-rule:evenodd;}</style></defs><title>github-mark</title><path class="cls-1" d="M960.597,354.66317c-105.68015,0-191.37828,85.68756-191.37828,191.40178A191.42412,191.42412,0,0,0,900.11281,727.66313c9.56986,1.75534,13.06286-4.15337,13.06286-9.22554,0-4.54345-.16566-16.57942-.25848-32.5514-53.23837,11.566-64.4718-25.65575-64.4718-25.65575-8.70276-22.10981-21.24983-27.9962-21.24983-27.9962-17.3772-11.875,1.31475-11.63415,1.31475-11.63415,19.20663,1.35352,29.31565,19.72353,29.31565,19.72353,17.07289,29.2475,44.79416,20.80212,55.69985,15.90266,1.73889-12.36848,6.683-20.80212,12.15111-25.58643-42.49952-4.83013-87.17854-21.24976-87.17854-94.59117,0-20.89376,7.45727-37.9784,19.7-51.35731-1.968-4.84188-8.53586-24.30105,1.87636-50.65118,0,0,16.0695-5.14619,52.63094,19.62014a181.40931,181.40931,0,0,1,95.82954,0c36.53911-24.76632,52.57924-19.62014,52.57924-19.62014,10.44159,26.35013,3.87256,45.8093,1.90456,50.65118,12.26626,13.37891,19.673,30.46355,19.673,51.35731,0,73.5247-44.74834,89.70347-87.38533,94.442,6.87216,5.90872,12.99354,17.58986,12.99354,35.4429,0,25.58643-.235,46.22875-.235,52.504,0,5.118,3.44724,11.07253,13.16038,9.20322A191.45172,191.45172,0,0,0,1152,546.065C1152,440.35073,1066.30069,354.66317,960.597,354.66317Z" transform="translate(-769.21869 -354.66317)"/></svg>